<?xml version="1.0" encoding="UTF-8"?>
<svg width="600" height="600" version="1.1" xmlns="http://www.w3.org/2000/svg">
  <path d="m147.15 473.59-24.061 24.061h33.328a58.745 58.745 0 0 0-9.2676-24.061z"/>
  <path d="m444.07 469.62-58.035 58.035h-44.025a58.745 58.745 0 0 0 52.098 31.602 58.745 58.745 0 0 0 58.744-58.744 58.745 58.745 0 0 0-8.7812-30.893z"/>
  <path d="m71.873 453.76a58.745 58.745 0 0 0-32.316 52.463 58.745 58.745 0 0 0 58.744 58.744 58.745 58.745 0 0 0 54.697-37.316h-81.125z"/>
  <path d="m364.82 449.59a58.745 58.745 0 0 0-29.389 48.066h29.389z"/>
  <path d="m101.87 447.59v28.85l22.738-22.736a58.745 58.745 0 0 0-22.738-6.1133z"/>
  <path d="m394.82 441.77v34.67l27.471-27.471a58.745 58.745 0 0 0-27.471-7.1992z"/>
  <path d="m433.62 401.89a58.745 58.745 0 0 0 11.215 24.535l24.535-24.535z"/>
  <path d="m218.85 401.89-29.6 29.6a58.745 58.745 0 0 0 29.102 7.7168 58.745 58.745 0 0 0 54.697-37.316z"/>
  <path d="m520.58 339.51v53.594l-51.641 51.641a58.745 58.745 0 0 0 22.285 4.3926 58.745 58.745 0 0 0 58.744-58.744 58.745 58.745 0 0 0-29.389-50.883z"/>
  <path d="m490.47 331.65a58.745 58.745 0 0 0-55 40.238h55.111v-40.238a58.745 58.745 0 0 0-0.11133 0z"/>
  <path d="m197.64 325.49a58.745 58.745 0 0 0-38.029 54.971 58.745 58.745 0 0 0 8.2402 30.004l29.789-29.787z"/>
  <path d="m227.64 322.45v49.436h48.83a58.745 58.745 0 0 0-48.83-49.436z"/>
  <path d="m319.98 234.71a58.745 58.745 0 0 0 44.836 43.188v-43.188z"/>
  <path d="m101.87 234.71v44.459a58.745 58.745 0 0 0 56.98-44.459z"/>
  <path d="m428.5 192.24-33.684 33.684v50.465a58.745 58.745 0 0 0 40.889-55.965 58.745 58.745 0 0 0-7.2051-28.184z"/>
  <path d="m146.07 181.72-22.984 22.984h35.391a58.745 58.745 0 0 0-12.406-22.984z"/>
  <path d="m376.85 161.68a58.745 58.745 0 0 0-56.49 43.031h53.246l34.25-34.25a58.745 58.745 0 0 0-30.893-8.7812 58.745 58.745 0 0 0-0.11328 0z"/>
  <path d="m101.76 161.68a58.745 58.745 0 0 0-58.633 58.744 58.745 58.745 0 0 0 28.744 50.508v-51.221l53.24-53.24a58.745 58.745 0 0 0-23.24-4.791 58.745 58.745 0 0 0-0.11133 0z"/>
  <path d="m197.64 130.16-23.605 23.605a58.745 58.745 0 0 0 23.605 10.082z"/>
  <path d="m490.58 130.16-25.828 25.828a58.745 58.745 0 0 0 25.828 6.6855z"/>
  <path d="m433.48 108.94a58.745 58.745 0 0 0 9.1191 26.771l26.771-26.771z"/>
  <path d="m227.64 108.94v52.633a58.745 58.745 0 0 0 39.389-52.633z"/>
  <path d="m208.24 47.342a58.745 58.745 0 0 0-58.633 58.746 58.745 58.745 0 0 0 7.3789 28.508l55.652-55.652h47.811a58.745 58.745 0 0 0-52.098-31.602 58.745 58.745 0 0 0-0.11133 0z"/>
  <path d="m491.9 45.199a58.745 58.745 0 0 0-53.047 33.744h81.73v76.328a58.745 58.745 0 0 0 30.172-51.328 58.745 58.745 0 0 0-58.744-58.744 58.745 58.745 0 0 0-0.11133 0z"/>
</svg>
